<?xml version="1.0" encoding="iso-8859-1"?>
<!-- Generator: Adobe Illustrator 16.0.0, SVG Export Plug-In . SVG Version: 6.00 Build 0)  -->
<!DOCTYPE svg PUBLIC "-//W3C//DTD SVG 1.1//EN" "http://www.w3.org/Graphics/SVG/1.1/DTD/svg11.dtd">
<svg version="1.1" id="Capa_1" xmlns="http://www.w3.org/2000/svg" xmlns:xlink="http://www.w3.org/1999/xlink" x="0px" y="0px"
	 width="32.822px" height="32.822px" viewBox="0 0 32.822 32.822" style="enable-background:new 0 0 32.822 32.822;"
	 xml:space="preserve">
<g>
	<path d="M19.699,19.366c-0.494-0.844-0.026-3.581,0.051-4.468c0.079-0.887,0.854-3.538,0.453-3.901
		c-0.442-0.401-1.349-1.698-1.358-2.258c-0.012-0.559,1.009-3.537,1.133-4.207c0.124-0.669-0.401-2.429-0.401-2.429
		s0.139,0.034,0.247,0.062c0.109,0.028,0.71-0.22,0.865-0.268c0.155-0.048,0.103-0.236,0-0.227
		c-0.104,0.011-0.617-0.034-0.786-0.043c-0.169-0.009-0.038-0.348,0.055-0.369c0.094-0.021,1.051,0.042,1.061-0.082
		c0.011-0.123-0.979-0.34-0.979-0.34s0.741-0.154,0.731-0.318c-0.011-0.165-1.05,0.071-1.05,0.071s0.4-0.442,0.319-0.576
		c-0.081-0.134-1.152,0.762-1.25,1.401c-0.097,0.639-0.188,2.719-0.188,2.719s-0.085,1.109-0.26,1.418
		c-0.288-0.227-0.535-0.721-1.441-0.68c-0.906,0.042-1.441,0.752-1.338,1.729C15.15,6.91,15.81,7.774,15.81,7.774
		s0.196,0.617-0.206,1.05c-0.401,0.433-3.994,2.944-4.2,3.253s-0.621,3.135-0.679,3.521c-0.059,0.386-0.579,1.487-0.681,1.709
		c-0.101,0.22,0.165,0.185,0.165,0.185s-0.239,0.307-0.37,0.475c-0.132,0.168-0.124,0.905-0.124,0.905s-3.213,3.191-3.262,4
		c-0.026,0.439,2.191,2.961,4.661,4.75c2.087,1.514,4.488,2.367,4.488,2.367s-0.453,0.269-0.433,0.494
		c0.021,0.226-0.062,1.338-0.062,1.338l0.719,0.292l0.188-0.477c0,0,0.576,1.173,0.905,1.182c0.33,0.008,0.947,0,1.317,0
		s0.371-0.523,0.083-0.688c-0.288-0.164-0.556-0.083-0.638-0.246c-0.083-0.165-0.165-1.628-0.165-1.628s2.778,0.146,5.62-1.256
		c2.841-1.398,3.231-3.788,3.231-3.788S20.193,20.21,19.699,19.366z M13.401,19.01c-0.412,0.055-1.883-1.312-1.828-1.593
		c0.02-0.098-0.062-1.151-0.001-1.496c0.242-1.38,0.921-3.171,0.921-3.171s2.168-1.453,2.869-1.427
		c0.362,0.014,0.557,0.518,0.851,0.975c0.274,0.426,0.648,0.576,0.647,1.111C16.859,15.168,13.813,18.954,13.401,19.01z"/>
</g>
<g>
</g>
<g>
</g>
<g>
</g>
<g>
</g>
<g>
</g>
<g>
</g>
<g>
</g>
<g>
</g>
<g>
</g>
<g>
</g>
<g>
</g>
<g>
</g>
<g>
</g>
<g>
</g>
<g>
</g>
</svg>
